mtllib backdrop.mtl
o backdrop:backdrop_backdrop:backdrop1_backdrop:group2_backdrop:p
v 124.868279 -0.049335 53.680305
v 124.868279 -0.039076 -17.226313
v 124.868279 0.014637 -18.836903
v 124.868279 0.114323 -20.445324
v 124.868279 0.259900 -22.050262
v 124.868279 0.451251 -23.650412
v 124.868279 0.688221 -25.244467
v 124.868279 0.970617 -26.831125
v 124.868279 1.298213 -28.409096
v 124.868279 1.670739 -29.977089
v 124.868279 2.087895 -31.533821
v 124.868279 2.549341 -33.078030
v 124.868279 3.054703 -34.608452
v 124.868279 3.603568 -36.123840
v 124.868279 4.195490 -37.622955
v 124.868279 4.829989 -39.104576
v 124.868279 5.506547 -40.567493
v 124.868279 6.224615 -42.010513
v 124.868279 6.983606 -43.432461
v 124.868279 7.782904 -44.832172
v 124.868279 8.621857 -46.208508
v 124.868279 9.499783 -47.560341
v 124.868279 10.415966 -48.886574
v 124.868279 11.369658 -50.186111
v 124.868279 12.360086 -51.457909
v 124.868279 13.386441 -52.700920
v 124.868279 14.447887 -53.914135
v 124.868279 15.543560 -55.096561
v 124.868279 16.672567 -56.247231
v 124.868279 17.833986 -57.365204
v 124.868279 19.026873 -58.449574
v 124.868279 20.250256 -59.499447
v 124.868279 21.503134 -60.513973
v 124.868279 22.784492 -61.492325
v 124.868279 24.093283 -62.433693
v 124.868279 25.428438 -63.337322
v 124.868279 26.788872 -64.202461
v 124.868279 28.173477 -65.028412
v 124.868279 29.581118 -65.814499
v 124.868279 31.010653 -66.560074
v 124.868279 32.460915 -67.264534
v 124.868279 33.930725 -67.927307
v 124.868279 35.418877 -68.547852
v 124.868279 36.924164 -69.125641
v 124.868279 38.445358 -69.660225
v 124.868279 39.981216 -70.151154
v 124.868279 41.530487 -70.598038
v 124.868279 43.091911 -71.000496
v 124.868279 44.664215 -71.358208
v 124.868279 46.246109 -71.670891
v 124.868279 47.836311 -71.938263
v 124.868279 59.002075 -73.546249
v -109.837105 -0.049335 53.680305
v -109.837105 -0.039076 -17.226313
v -109.837105 0.014637 -18.836903
v -109.837105 0.114323 -20.445324
v -109.837105 0.259900 -22.050262
v -109.837105 0.451251 -23.650412
v -109.837105 0.688221 -25.244467
v -109.837105 0.970617 -26.831125
v -109.837105 1.298213 -28.409096
v -109.837105 1.670739 -29.977089
v -109.837105 2.087895 -31.533821
v -109.837105 2.549341 -33.078030
v -109.837105 3.054703 -34.608452
v -109.837105 3.603568 -36.123840
v -109.837105 4.195490 -37.622955
v -109.837105 4.829989 -39.104576
v -109.837105 5.506547 -40.567493
v -109.837105 6.224615 -42.010513
v -109.837105 6.983606 -43.432461
v -109.837105 7.782904 -44.832172
v -109.837105 8.621857 -46.208508
v -109.837105 9.499783 -47.560341
v -109.837105 10.415966 -48.886574
v -109.837105 11.369658 -50.186111
v -109.837105 12.360086 -51.457909
v -109.837105 13.386441 -52.700920
v -109.837105 14.447887 -53.914135
v -109.837105 15.543560 -55.096561
v -109.837105 16.672567 -56.247231
v -109.837105 17.833986 -57.365204
v -109.837105 19.026873 -58.449574
v -109.837105 20.250256 -59.499447
v -109.837105 21.503134 -60.513973
v -109.837105 22.784492 -61.492325
v -109.837105 24.093283 -62.433693
v -109.837105 25.428438 -63.337322
v -109.837105 26.788872 -64.202461
v -109.837105 28.173477 -65.028412
v -109.837105 29.581118 -65.814499
v -109.837105 31.010653 -66.560074
v -109.837105 32.460915 -67.264534
v -109.837105 33.930725 -67.927307
v -109.837105 35.418877 -68.547852
v -109.837105 36.924164 -69.125641
v -109.837105 38.445358 -69.660225
v -109.837105 39.981216 -70.151154
v -109.837105 41.530487 -70.598038
v -109.837105 43.091911 -71.000496
v -109.837105 44.664215 -71.358208
v -109.837105 46.246109 -71.670891
v -109.837105 47.836311 -71.938263
v -109.837105 59.002075 -73.546249
vt 0.5200 1.0000
vt 0.5100 1.0000
vt 0.5100 0.0000
vt 0.5200 0.0000
vt 0.4400 1.0000
vt 0.0000 1.0000
vt 0.0000 0.0000
vt 0.4400 0.0000
vt 0.7400 1.0000
vt 0.7300 1.0000
vt 0.7300 0.0000
vt 0.7400 0.0000
vt 0.7200 1.0000
vt 0.7100 1.0000
vt 0.7100 0.0000
vt 0.7200 0.0000
vt 0.8400 1.0000
vt 0.8300 1.0000
vt 0.8300 0.0000
vt 0.8400 0.0000
vt 0.6000 1.0000
vt 0.5900 1.0000
vt 0.5900 0.0000
vt 0.6000 0.0000
vt 0.4800 1.0000
vt 0.4700 1.0000
vt 0.4700 0.0000
vt 0.4800 0.0000
vt 0.9100 1.0000
vt 0.9000 1.0000
vt 0.9000 0.0000
vt 0.9100 0.0000
vt 0.8200 1.0000
vt 0.8200 0.0000
vt 0.6600 1.0000
vt 0.6500 1.0000
vt 0.6500 0.0000
vt 0.6600 0.0000
vt 0.4600 1.0000
vt 0.4500 1.0000
vt 0.4500 0.0000
vt 0.4600 0.0000
vt 0.5500 1.0000
vt 0.5400 1.0000
vt 0.5400 0.0000
vt 0.5500 0.0000
vt 0.9300 1.0000
vt 0.9200 1.0000
vt 0.9200 0.0000
vt 0.9300 0.0000
vt 0.8900 1.0000
vt 0.8800 1.0000
vt 0.8800 0.0000
vt 0.8900 0.0000
vt 0.4900 1.0000
vt 0.4900 0.0000
vt 0.5300 1.0000
vt 0.5300 0.0000
vt 0.6300 1.0000
vt 0.6200 1.0000
vt 0.6200 0.0000
vt 0.6300 0.0000
vt 0.5000 1.0000
vt 0.5000 0.0000
vt 0.8100 1.0000
vt 0.8000 1.0000
vt 0.8000 0.0000
vt 0.8100 0.0000
vt 0.6900 1.0000
vt 0.6800 1.0000
vt 0.6800 0.0000
vt 0.6900 0.0000
vt 1.0000 0.0000
vt 1.0000 1.0000
vt 0.5800 1.0000
vt 0.5800 0.0000
vt 0.6700 1.0000
vt 0.6700 0.0000
vt 0.5700 1.0000
vt 0.5700 0.0000
vt 0.6400 1.0000
vt 0.6400 0.0000
vt 0.7500 1.0000
vt 0.7500 0.0000
vt 0.6100 1.0000
vt 0.6100 0.0000
vt 0.7000 1.0000
vt 0.7000 0.0000
vt 0.7900 1.0000
vt 0.7800 1.0000
vt 0.7800 0.0000
vt 0.7900 0.0000
vt 0.7700 1.0000
vt 0.7700 0.0000
vt 0.8600 1.0000
vt 0.8500 1.0000
vt 0.8500 0.0000
vt 0.8600 0.0000
vt 0.8700 1.0000
vt 0.8700 0.0000
vt 0.5600 1.0000
vt 0.5600 0.0000
vt 0.7600 1.0000
vt 0.7600 0.0000
vn 0.0000 0.9695 0.2450
vn 0.0000 0.9761 0.2172
vn 0.0000 0.9999 0.0167
vn 0.0000 1.0000 0.0001
vn 0.0000 0.6403 0.7681
vn 0.0000 0.6620 0.7495
vn 0.0000 0.6831 0.7303
vn 0.0000 0.7037 0.7105
vn 0.0000 0.3980 0.9174
vn 0.0000 0.4240 0.9056
vn 0.0000 0.8888 0.4582
vn 0.0000 0.9016 0.4327
vn 0.0000 0.9911 0.1329
vn 0.0000 0.9945 0.1045
vn 0.0000 0.2079 0.9782
vn 0.0000 0.2357 0.9718
vn 0.0000 0.4497 0.8932
vn 0.0000 0.7977 0.6031
vn 0.0000 0.8146 0.5801
vn 0.0000 0.9971 0.0761
vn 0.0000 0.9989 0.0476
vn 0.0000 0.9450 0.3271
vn 0.0000 0.9539 0.3000
vn 0.0000 0.1542 0.9880
vn 0.0000 0.1799 0.9837
vn 0.0000 0.2634 0.9647
vn 0.0000 0.2908 0.9568
vn 0.0000 0.9869 0.1612
vn 0.0000 0.9621 0.2726
vn 0.0000 0.8464 0.5326
vn 0.0000 0.8612 0.5082
vn 0.0000 0.9819 0.1893
vn 0.0000 0.4750 0.8800
vn 0.0000 0.5000 0.8660
vn 0.0000 0.7431 0.6691
vn 0.0000 0.7619 0.6477
vn 0.0000 0.1425 0.9898
vn 0.0000 0.9135 0.4068
vn 0.0000 0.7801 0.6256
vn 0.0000 0.9248 0.3805
vn 0.0000 0.8308 0.5566
vn 0.0000 0.6181 0.7861
vn 0.0000 0.8754 0.4834
vn 0.0000 0.7237 0.6901
vn 0.0000 0.5245 0.8514
vn 0.0000 0.5486 0.8361
vn 0.0000 0.5723 0.8201
vn 0.0000 0.3450 0.9386
vn 0.0000 0.3716 0.9284
vn 0.0000 0.3180 0.9481
vn 0.0000 0.9353 0.3539
vn 0.0000 0.5954 0.8034
usemtl initialShadingGroup
s 1
f 62/1/1 61/2/2 9/3/2 10/4/1
f 54/5/3 53/6/4 1/7/4 2/8/3
f 84/9/5 83/10/6 31/11/6 32/12/5
f 82/13/7 81/14/8 29/15/8 30/16/7
f 94/17/9 93/18/10 41/19/10 42/20/9
f 70/21/11 69/22/12 17/23/12 18/24/11
f 58/25/13 57/26/14 5/27/14 6/28/13
f 101/29/15 100/30/16 48/31/16 49/32/15
f 93/18/10 92/33/17 40/34/17 41/19/10
f 76/35/18 75/36/19 23/37/19 24/38/18
f 56/39/20 55/40/21 3/41/21 4/42/20
f 65/43/22 64/44/23 12/45/23 13/46/22
f 103/47/24 102/48/25 50/49/25 51/50/24
f 99/51/26 98/52/27 46/53/27 47/54/26
f 59/55/28 58/25/13 6/28/13 7/56/28
f 64/44/23 63/57/29 11/58/29 12/45/23
f 73/59/30 72/60/31 20/61/31 21/62/30
f 55/40/21 54/5/3 2/8/3 3/41/21
f 60/63/32 59/55/28 7/56/28 8/64/32
f 91/65/33 90/66/34 38/67/34 39/68/33
f 79/69/35 78/70/36 26/71/36 27/72/35
f 51/50/24 52/73/37 104/74/37 103/47/24
f 69/22/12 68/75/38 16/76/38 17/23/12
f 78/70/36 77/77/39 25/78/39 26/71/36
f 57/26/14 56/39/20 4/42/20 5/27/14
f 83/10/6 82/13/7 30/16/7 31/11/6
f 68/75/38 67/79/40 15/80/40 16/76/38
f 102/48/25 101/29/15 49/32/15 50/49/25
f 75/36/19 74/81/41 22/82/41 23/37/19
f 85/83/42 84/9/5 32/12/5 33/84/42
f 71/85/43 70/21/11 18/24/11 19/86/43
f 81/14/8 80/87/44 28/88/44 29/15/8
f 89/89/45 88/90/46 36/91/46 37/92/45
f 61/2/2 60/63/32 8/64/32 9/3/2
f 63/57/29 62/1/1 10/4/1 11/58/29
f 88/90/46 87/93/47 35/94/47 36/91/46
f 96/95/48 95/96/49 43/97/49 44/98/48
f 98/52/27 97/99/50 45/100/50 46/53/27
f 67/79/40 66/101/51 14/102/51 15/80/40
f 72/60/31 71/85/43 19/86/43 20/61/31
f 95/96/49 94/17/9 42/20/9 43/97/49
f 74/81/41 73/59/30 21/62/30 22/82/41
f 100/30/16 99/51/26 47/54/26 48/31/16
f 66/101/51 65/43/22 13/46/22 14/102/51
f 90/66/34 89/89/45 37/92/45 38/67/34
f 97/99/50 96/95/48 44/98/48 45/100/50
f 86/103/52 85/83/42 33/84/42 34/104/52
f 80/87/44 79/69/35 27/72/35 28/88/44
f 92/33/17 91/65/33 39/68/33 40/34/17
f 87/93/47 86/103/52 34/104/52 35/94/47
f 77/77/39 76/35/18 24/38/18 25/78/39
