mtllib cone.mtl
g Object__0
v 0 0 0
v 0 0 -1
v 0.587785 0 -0.809017
v 0.951057 0 -0.309017
v 0.951056 0 0.309017
v 0.587785 0 0.809017
v 0 2 0
v 0 0 1
v -0.587785 0 0.809017
v -0.951056 0 0.309017
v -0.951056 0 -0.309017
v -0.587785 0 -0.809017
vn 0 -1 0
vn 0 0.447214 -0.894427
vn 0 1 0
vn 0.525714 0.447212 -0.72362
vn 0.850668 0.447183 -0.27639
vn 0.850668 0.447183 0.27639
vn 0.525714 0.447212 0.72362
vn -0 0.447214 0.894427
vn -0.525714 0.447212 0.72362
vn -0.850668 0.447183 0.27639
vn -0.850668 0.447183 -0.27639
vn -0.525714 0.447212 -0.72362
usemtl Material_003
f 1//1 2//1 3//1
f 2//2 7//3 3//4
f 1//1 3//1 4//1
f 3//4 7//3 4//5
f 1//1 4//1 5//1
f 4//5 7//3 5//6
f 1//1 5//1 6//1
f 5//6 7//3 6//7
f 1//1 6//1 8//1
f 6//7 7//3 8//8
f 1//1 8//1 9//1
f 8//8 7//3 9//9
f 1//1 9//1 10//1
f 9//9 7//3 10//10
f 1//1 10//1 11//1
f 10//10 7//3 11//11
f 1//1 11//1 12//1
f 11//11 7//3 12//12
f 1//1 12//1 2//1
f 12//12 7//3 2//2
