mtllib golf.mtl
o ball
v 0.000000 0.500000 0.000000
v 0.136633 0.480969 0.000000
v 0.042222 0.480969 -0.129946
v 0.262866 0.425325 0.000000
v 0.180902 0.447214 -0.131433
v 0.081230 0.425325 -0.250000
v -0.110539 0.480969 -0.080311
v -0.069098 0.447214 -0.212663
v -0.212663 0.425325 -0.154508
v -0.110539 0.480969 0.080311
v -0.223607 0.447214 0.000000
v -0.212663 0.425325 0.154509
v 0.042222 0.480969 0.129946
v -0.069098 0.447214 0.212663
v 0.081230 0.425325 0.250000
v 0.180902 0.447214 0.131433
v 0.344095 0.262866 -0.250000
v 0.223607 0.361803 -0.262865
v 0.319098 0.361803 -0.131433
v -0.131433 0.262866 -0.404508
v -0.180902 0.361803 -0.293893
v -0.026393 0.361803 -0.344095
v -0.425325 0.262866 0.000000
v -0.335410 0.361803 0.081230
v -0.335410 0.361803 -0.081230
v -0.131433 0.262865 0.404509
v -0.026393 0.361803 0.344095
v -0.180902 0.361803 0.293893
v 0.344096 0.262866 0.250000
v 0.319098 0.361803 0.131433
v 0.223607 0.361803 0.262866
v 0.369088 0.337304 0.000000
v 0.411310 0.252860 0.129946
v 0.447214 0.223607 0.000000
v 0.411310 0.252861 -0.129946
v 0.114054 0.337305 -0.351023
v 0.250688 0.252861 -0.351023
v 0.138197 0.223607 -0.425325
v 0.003516 0.252861 -0.431334
v -0.298598 0.337304 -0.216944
v -0.256376 0.252861 -0.346890
v -0.361803 0.223607 -0.262866
v -0.409137 0.252861 -0.136633
v -0.298598 0.337304 0.216944
v -0.409137 0.252860 0.136633
v -0.361803 0.223607 0.262866
v -0.256376 0.252860 0.346890
v 0.114054 0.337304 0.351023
v 0.003516 0.252860 0.431334
v 0.138197 0.223607 0.425325
v 0.250688 0.252860 0.351023
v 0.475528 0.000000 -0.154509
v 0.430902 0.138197 -0.212663
v 0.479626 0.116227 -0.080311
v 0.293893 0.000000 -0.404509
v 0.224593 0.116227 -0.431334
v 0.335410 0.138197 -0.344095
v 0.000000 0.000000 -0.500000
v -0.069098 0.138197 -0.475528
v 0.071832 0.116227 -0.480969
v -0.293893 0.000000 -0.404509
v -0.340820 0.116227 -0.346890
v -0.223607 0.138197 -0.425325
v -0.475528 0.000000 -0.154508
v -0.473607 0.138197 -0.081230
v -0.435232 0.116227 -0.216944
v -0.475528 -0.000000 0.154508
v -0.435231 0.116227 0.216944
v -0.473607 0.138197 0.081230
v -0.293893 -0.000000 0.404509
v -0.223607 0.138197 0.425325
v -0.340820 0.116227 0.346890
v 0.000000 -0.000000 0.500000
v 0.071832 0.116227 0.480969
v -0.069098 0.138197 0.475528
v 0.293893 -0.000000 0.404508
v 0.335410 0.138197 0.344095
v 0.224593 0.116227 0.431334
v 0.475528 -0.000000 0.154508
v 0.479626 0.116227 0.080311
v 0.430902 0.138197 0.212663
v 0.500000 0.000000 -0.000000
v 0.404508 0.000000 -0.293893
v 0.154508 0.000000 -0.475528
v -0.154508 0.000000 -0.475528
v -0.404509 0.000000 -0.293893
v -0.500000 0.000000 0.000000
v -0.404509 -0.000000 0.293893
v -0.154508 -0.000000 0.475528
v 0.154509 -0.000000 0.475528
v 0.404509 -0.000000 0.293892
v 0.136633 -0.480969 -0.000000
v 0.000000 -0.500000 -0.000000
v 0.042222 -0.480969 -0.129946
v 0.262866 -0.425325 -0.000000
v 0.180902 -0.447214 -0.131433
v 0.081230 -0.425325 -0.250000
v -0.110539 -0.480969 -0.080311
v -0.069098 -0.447214 -0.212663
v -0.212663 -0.425325 -0.154509
v -0.110539 -0.480969 0.080311
v -0.223607 -0.447214 -0.000000
v -0.212663 -0.425325 0.154508
v 0.042222 -0.480969 0.129946
v -0.069098 -0.447214 0.212663
v 0.081230 -0.425325 0.250000
v 0.180902 -0.447214 0.131433
v 0.223607 -0.361803 -0.262866
v 0.344095 -0.262866 -0.250000
v 0.319098 -0.361803 -0.131433
v -0.180902 -0.361803 -0.293893
v -0.131433 -0.262865 -0.404508
v -0.026393 -0.361803 -0.344095
v -0.335410 -0.361803 0.081230
v -0.425325 -0.262866 -0.000000
v -0.335410 -0.361803 -0.081230
v -0.026393 -0.361803 0.344095
v -0.131433 -0.262866 0.404508
v -0.180902 -0.361803 0.293893
v 0.319098 -0.361803 0.131433
v 0.344096 -0.262866 0.250000
v 0.223607 -0.361803 0.262865
v 0.369088 -0.337304 -0.000000
v 0.411310 -0.252861 0.129946
v 0.447214 -0.223607 -0.000000
v 0.411310 -0.252860 -0.129946
v 0.114054 -0.337304 -0.351023
v 0.250688 -0.252860 -0.351023
v 0.138197 -0.223607 -0.425325
v 0.003516 -0.252860 -0.431334
v -0.298598 -0.337304 -0.216944
v -0.256376 -0.252860 -0.346890
v -0.361803 -0.223607 -0.262866
v -0.409137 -0.252860 -0.136633
v -0.298598 -0.337305 0.216944
v -0.409137 -0.252861 0.136633
v -0.361803 -0.223607 0.262866
v -0.256376 -0.252861 0.346890
v 0.114054 -0.337305 0.351023
v 0.003516 -0.252861 0.431334
v 0.138197 -0.223607 0.425325
v 0.250688 -0.252861 0.351023
v 0.430902 -0.138197 -0.212663
v 0.475528 0.000000 -0.154509
v 0.479626 -0.116227 -0.080311
v 0.224593 -0.116227 -0.431334
v 0.293893 0.000000 -0.404509
v 0.335410 -0.138197 -0.344096
v -0.069098 -0.138197 -0.475528
v 0.000000 0.000000 -0.500000
v 0.071832 -0.116227 -0.480969
v -0.340820 -0.116227 -0.346890
v -0.293893 0.000000 -0.404509
v -0.223607 -0.138197 -0.425325
v -0.473607 -0.138197 -0.081230
v -0.475528 0.000000 -0.154508
v -0.435232 -0.116227 -0.216944
v -0.435231 -0.116227 0.216944
v -0.475528 -0.000000 0.154508
v -0.473607 -0.138197 0.081230
v -0.223607 -0.138197 0.425325
v -0.293893 -0.000000 0.404509
v -0.340820 -0.116227 0.346890
v 0.071832 -0.116227 0.480969
v 0.000000 -0.000000 0.500000
v -0.069098 -0.138197 0.475528
v 0.335410 -0.138197 0.344095
v 0.293893 -0.000000 0.404508
v 0.224593 -0.116227 0.431334
v 0.479626 -0.116227 0.080311
v 0.475528 -0.000000 0.154508
v 0.430902 -0.138197 0.212663
v 0.500000 0.000000 -0.000000
v 0.404508 0.000000 -0.293893
v 0.154508 0.000000 -0.475528
v -0.154508 0.000000 -0.475528
v -0.404509 0.000000 -0.293893
v -0.500000 0.000000 0.000000
v -0.404509 -0.000000 0.293893
v -0.154508 -0.000000 0.475528
v 0.154509 -0.000000 0.475528
v 0.404509 -0.000000 0.293892
vt 0.5031 0.5031
vt 0.6000 0.5031
vt 0.5331 0.5953
vt 0.6898 0.5031
vt 0.6314 0.5963
vt 0.5608 0.6806
vt 0.4247 0.5601
vt 0.4541 0.6539
vt 0.3521 0.6128
vt 0.4247 0.4462
vt 0.3446 0.5031
vt 0.3521 0.3934
vt 0.5331 0.4110
vt 0.4541 0.3524
vt 0.5608 0.3256
vt 0.6314 0.4100
vt 0.7382 0.6739
vt 0.6612 0.6892
vt 0.7289 0.5959
vt 0.4134 0.7794
vt 0.3750 0.7109
vt 0.4846 0.7466
vt 0.2126 0.5031
vt 0.2659 0.4455
vt 0.2659 0.5608
vt 0.4134 0.2268
vt 0.4846 0.2597
vt 0.3750 0.2953
vt 0.7382 0.3324
vt 0.7289 0.4103
vt 0.6612 0.3171
vt 0.7671 0.5031
vt 0.7887 0.4144
vt 0.8281 0.5031
vt 0.7887 0.5919
vt 0.5847 0.7541
vt 0.6758 0.7473
vt 0.6036 0.8122
vt 0.5070 0.8022
vt 0.2896 0.6583
vt 0.3242 0.7428
vt 0.2402 0.6942
vt 0.2199 0.5992
vt 0.2896 0.3480
vt 0.2199 0.4070
vt 0.2402 0.3121
vt 0.3242 0.2635
vt 0.5847 0.2521
vt 0.5070 0.2041
vt 0.6036 0.1941
vt 0.6758 0.2589
vt 0.9586 0.6503
vt 0.8486 0.6736
vt 0.8983 0.5677
vt 0.7838 0.8909
vt 0.6867 0.8590
vt 0.7720 0.7790
vt 0.5040 0.9818
vt 0.4478 0.8844
vt 0.5638 0.8989
vt 0.2211 0.8899
vt 0.2214 0.7877
vt 0.3238 0.8441
vt 0.0482 0.6518
vt 0.1235 0.5683
vt 0.1455 0.6831
vt 0.0482 0.3544
vt 0.1455 0.3231
vt 0.1235 0.4379
vt 0.2211 0.1164
vt 0.3238 0.1622
vt 0.2214 0.2186
vt 0.5040 0.0245
vt 0.5638 0.1073
vt 0.4478 0.1219
vt 0.7838 0.1154
vt 0.7720 0.2272
vt 0.6867 0.1473
vt 0.9586 0.3560
vt 0.8983 0.4385
vt 0.8486 0.3327
vt 0.9811 0.5031
vt 0.8901 0.7843
vt 0.6508 0.9577
vt 0.3553 0.9580
vt 0.1165 0.7841
vt 0.0248 0.5031
vt 0.1165 0.2222
vt 0.3553 0.0482
vt 0.6508 0.0486
vt 0.8901 0.2220
vt 0.6000 0.5031
vt 0.5031 0.5031
vt 0.5331 0.5953
vt 0.6898 0.5031
vt 0.6314 0.5963
vt 0.5608 0.6806
vt 0.4247 0.5601
vt 0.4541 0.6539
vt 0.3521 0.6128
vt 0.4247 0.4462
vt 0.3446 0.5031
vt 0.3521 0.3934
vt 0.5331 0.4110
vt 0.4541 0.3524
vt 0.5608 0.3256
vt 0.6314 0.4100
vt 0.6612 0.6892
vt 0.7382 0.6739
vt 0.7289 0.5959
vt 0.3750 0.7109
vt 0.4134 0.7794
vt 0.4846 0.7466
vt 0.2659 0.4455
vt 0.2126 0.5031
vt 0.2659 0.5608
vt 0.4846 0.2597
vt 0.4134 0.2268
vt 0.3750 0.2953
vt 0.7289 0.4103
vt 0.7382 0.3324
vt 0.6612 0.3171
vt 0.7671 0.5031
vt 0.7887 0.4144
vt 0.8281 0.5031
vt 0.7887 0.5919
vt 0.5847 0.7541
vt 0.6758 0.7473
vt 0.6036 0.8122
vt 0.5070 0.8022
vt 0.2896 0.6583
vt 0.3242 0.7428
vt 0.2402 0.6942
vt 0.2199 0.5992
vt 0.2896 0.3480
vt 0.2199 0.4070
vt 0.2402 0.3121
vt 0.3242 0.2635
vt 0.5847 0.2521
vt 0.5070 0.2041
vt 0.6036 0.1941
vt 0.6758 0.2589
vt 0.8486 0.6736
vt 0.9586 0.6503
vt 0.8983 0.5677
vt 0.6867 0.8590
vt 0.7838 0.8909
vt 0.7720 0.7790
vt 0.4478 0.8844
vt 0.5040 0.9818
vt 0.5638 0.8989
vt 0.2214 0.7877
vt 0.2211 0.8899
vt 0.3238 0.8441
vt 0.1235 0.5683
vt 0.0482 0.6518
vt 0.1455 0.6831
vt 0.1455 0.3231
vt 0.0482 0.3544
vt 0.1235 0.4379
vt 0.3238 0.1622
vt 0.2211 0.1164
vt 0.2214 0.2186
vt 0.5638 0.1073
vt 0.5040 0.0245
vt 0.4478 0.1219
vt 0.7720 0.2272
vt 0.7838 0.1154
vt 0.6867 0.1473
vt 0.8983 0.4385
vt 0.9586 0.3560
vt 0.8486 0.3327
vt 0.9811 0.5031
vt 0.8901 0.7843
vt 0.6508 0.9577
vt 0.3553 0.9580
vt 0.1165 0.7841
vt 0.0248 0.5031
vt 0.1165 0.2222
vt 0.3553 0.0482
vt 0.6508 0.0486
vt 0.8901 0.2220
vn 0.0000 1.0000 0.0000
vn 0.2713 0.9625 0.0000
vn 0.0838 0.9625 -0.2580
vn 0.5257 0.8507 0.0000
vn 0.3693 0.8897 -0.2683
vn 0.1625 0.8507 -0.5000
vn -0.2195 0.9625 -0.1595
vn -0.1411 0.8897 -0.4341
vn -0.4253 0.8507 -0.3090
vn -0.2195 0.9625 0.1595
vn -0.4565 0.8897 0.0000
vn -0.4253 0.8507 0.3090
vn 0.0838 0.9625 0.2580
vn -0.1411 0.8897 0.4341
vn 0.1625 0.8507 0.5000
vn 0.3693 0.8897 0.2683
vn 0.6882 0.5257 -0.5000
vn 0.4501 0.7282 -0.5169
vn 0.6306 0.7282 -0.2683
vn -0.2629 0.5257 -0.8090
vn -0.3525 0.7282 -0.5878
vn -0.0603 0.7282 -0.6827
vn -0.8507 0.5257 0.0000
vn -0.6679 0.7282 0.1536
vn -0.6679 0.7282 -0.1536
vn -0.2629 0.5257 0.8090
vn -0.0603 0.7282 0.6827
vn -0.3525 0.7282 0.5878
vn 0.6882 0.5257 0.5000
vn 0.6306 0.7282 0.2683
vn 0.4501 0.7282 0.5169
vn 0.7396 0.6731 -0.0000
vn 0.8234 0.5054 0.2580
vn 0.8944 0.4472 -0.0000
vn 0.8234 0.5054 -0.2580
vn 0.2285 0.6731 -0.7034
vn 0.4998 0.5054 -0.7034
vn 0.2764 0.4472 -0.8507
vn 0.0090 0.5054 -0.8628
vn -0.5983 0.6731 -0.4347
vn -0.5145 0.5054 -0.6927
vn -0.7236 0.4472 -0.5257
vn -0.8178 0.5054 -0.2752
vn -0.5983 0.6731 0.4347
vn -0.8178 0.5054 0.2752
vn -0.7236 0.4472 0.5257
vn -0.5145 0.5054 0.6927
vn 0.2285 0.6731 0.7034
vn 0.0090 0.5054 0.8628
vn 0.2764 0.4472 0.8507
vn 0.4998 0.5054 0.7034
vn 0.9427 0.1106 -0.3148
vn 0.8589 0.2717 -0.4341
vn 0.9590 0.2341 -0.1595
vn 0.5907 0.1106 -0.7993
vn 0.4480 0.2341 -0.8628
vn 0.6783 0.2717 -0.6827
vn -0.0081 0.1106 -0.9938
vn -0.1475 0.2717 -0.9510
vn 0.1447 0.2341 -0.9614
vn -0.5776 0.1106 -0.8088
vn -0.6821 0.2341 -0.6927
vn -0.4397 0.2717 -0.8561
vn -0.9477 0.1106 -0.2994
vn -0.9500 0.2717 -0.1536
vn -0.8696 0.2341 -0.4347
vn -0.9477 0.1106 0.2994
vn -0.8696 0.2341 0.4347
vn -0.9500 0.2717 0.1536
vn -0.5776 0.1106 0.8088
vn -0.4397 0.2717 0.8561
vn -0.6821 0.2341 0.6927
vn -0.0081 0.1106 0.9938
vn 0.1447 0.2341 0.9614
vn -0.1475 0.2717 0.9510
vn 0.5907 0.1106 0.7993
vn 0.6783 0.2717 0.6827
vn 0.4480 0.2341 0.8628
vn 0.9427 0.1106 0.3148
vn 0.9590 0.2341 0.1595
vn 0.8589 0.2717 0.4341
vn 0.9942 0.1073 -0.0000
vn 0.8023 0.1283 -0.5829
vn 0.3072 0.1073 -0.9456
vn -0.3065 0.1283 -0.9432
vn -0.8043 0.1073 -0.5844
vn -0.9917 0.1283 0.0000
vn -0.8043 0.1073 0.5844
vn -0.3065 0.1283 0.9432
vn 0.3072 0.1073 0.9456
vn 0.8023 0.1283 0.5829
vn 0.2713 -0.9625 -0.0000
vn -0.0000 -1.0000 -0.0000
vn 0.0838 -0.9625 -0.2580
vn 0.5257 -0.8507 -0.0000
vn 0.3693 -0.8897 -0.2683
vn 0.1625 -0.8507 -0.5000
vn -0.2195 -0.9625 -0.1595
vn -0.1411 -0.8897 -0.4341
vn -0.4253 -0.8507 -0.3090
vn -0.2195 -0.9625 0.1595
vn -0.4565 -0.8897 -0.0000
vn -0.4253 -0.8507 0.3090
vn 0.0838 -0.9625 0.2580
vn -0.1411 -0.8897 0.4341
vn 0.1625 -0.8507 0.5000
vn 0.3693 -0.8897 0.2683
vn 0.4501 -0.7282 -0.5169
vn 0.6882 -0.5257 -0.5000
vn 0.6306 -0.7282 -0.2683
vn -0.3525 -0.7282 -0.5878
vn -0.2629 -0.5257 -0.8090
vn -0.0603 -0.7282 -0.6827
vn -0.6679 -0.7282 0.1536
vn -0.8507 -0.5257 0.0000
vn -0.6679 -0.7282 -0.1536
vn -0.0603 -0.7282 0.6827
vn -0.2629 -0.5257 0.8090
vn -0.3525 -0.7282 0.5878
vn 0.6306 -0.7282 0.2683
vn 0.6882 -0.5257 0.5000
vn 0.4501 -0.7282 0.5169
vn 0.7396 -0.6731 -0.0000
vn 0.8234 -0.5054 0.2580
vn 0.8944 -0.4472 -0.0000
vn 0.8234 -0.5054 -0.2580
vn 0.2285 -0.6731 -0.7034
vn 0.4998 -0.5054 -0.7034
vn 0.2764 -0.4472 -0.8507
vn 0.0090 -0.5054 -0.8628
vn -0.5983 -0.6731 -0.4347
vn -0.5145 -0.5054 -0.6927
vn -0.7236 -0.4472 -0.5257
vn -0.8178 -0.5054 -0.2752
vn -0.5983 -0.6731 0.4347
vn -0.8178 -0.5054 0.2752
vn -0.7236 -0.4472 0.5257
vn -0.5145 -0.5054 0.6927
vn 0.2285 -0.6731 0.7034
vn 0.0090 -0.5054 0.8628
vn 0.2764 -0.4472 0.8507
vn 0.4998 -0.5054 0.7034
vn 0.8589 -0.2717 -0.4341
vn 0.9427 -0.1106 -0.3148
vn 0.9590 -0.2341 -0.1595
vn 0.4480 -0.2341 -0.8628
vn 0.5907 -0.1106 -0.7993
vn 0.6783 -0.2717 -0.6827
vn -0.1475 -0.2717 -0.9510
vn -0.0081 -0.1106 -0.9938
vn 0.1447 -0.2341 -0.9614
vn -0.6821 -0.2341 -0.6927
vn -0.5776 -0.1106 -0.8088
vn -0.4397 -0.2717 -0.8561
vn -0.9500 -0.2717 -0.1536
vn -0.9477 -0.1106 -0.2994
vn -0.8696 -0.2341 -0.4347
vn -0.8696 -0.2341 0.4347
vn -0.9477 -0.1106 0.2994
vn -0.9500 -0.2717 0.1536
vn -0.4397 -0.2717 0.8561
vn -0.5776 -0.1106 0.8088
vn -0.6821 -0.2341 0.6927
vn 0.1447 -0.2341 0.9614
vn -0.0081 -0.1106 0.9938
vn -0.1475 -0.2717 0.9510
vn 0.6783 -0.2717 0.6827
vn 0.5907 -0.1106 0.7993
vn 0.4480 -0.2341 0.8628
vn 0.9590 -0.2341 0.1595
vn 0.9427 -0.1106 0.3148
vn 0.8589 -0.2717 0.4341
vn 0.9942 -0.1073 -0.0000
vn 0.8023 -0.1283 -0.5829
vn 0.3072 -0.1073 -0.9456
vn -0.3065 -0.1283 -0.9432
vn -0.8043 -0.1073 -0.5844
vn -0.9917 -0.1283 0.0000
vn -0.8043 -0.1073 0.5844
vn -0.3065 -0.1283 0.9432
vn 0.3072 -0.1073 0.9456
vn 0.8023 -0.1283 0.5829
usemtl bumpy
s 1
f 1/1/1 2/2/2 3/3/3
f 2/2/2 4/4/4 5/5/5
f 2/2/2 5/5/5 3/3/3
f 3/3/3 5/5/5 6/6/6
f 1/1/1 3/3/3 7/7/7
f 3/3/3 6/6/6 8/8/8
f 3/3/3 8/8/8 7/7/7
f 7/7/7 8/8/8 9/9/9
f 1/1/1 7/7/7 10/10/10
f 7/7/7 9/9/9 11/11/11
f 7/7/7 11/11/11 10/10/10
f 10/10/10 11/11/11 12/12/12
f 1/1/1 10/10/10 13/13/13
f 10/10/10 12/12/12 14/14/14
f 10/10/10 14/14/14 13/13/13
f 13/13/13 14/14/14 15/15/15
f 1/1/1 13/13/13 2/2/2
f 13/13/13 15/15/15 16/16/16
f 13/13/13 16/16/16 2/2/2
f 2/2/2 16/16/16 4/4/4
f 17/17/17 18/18/18 19/19/19
f 18/18/18 6/6/6 5/5/5
f 18/18/18 5/5/5 19/19/19
f 19/19/19 5/5/5 4/4/4
f 20/20/20 21/21/21 22/22/22
f 21/21/21 9/9/9 8/8/8
f 21/21/21 8/8/8 22/22/22
f 22/22/22 8/8/8 6/6/6
f 23/23/23 24/24/24 25/25/25
f 24/24/24 12/12/12 11/11/11
f 24/24/24 11/11/11 25/25/25
f 25/25/25 11/11/11 9/9/9
f 26/26/26 27/27/27 28/28/28
f 27/27/27 15/15/15 14/14/14
f 27/27/27 14/14/14 28/28/28
f 28/28/28 14/14/14 12/12/12
f 29/29/29 30/30/30 31/31/31
f 30/30/30 4/4/4 16/16/16
f 30/30/30 16/16/16 31/31/31
f 31/31/31 16/16/16 15/15/15
f 4/4/4 30/30/30 32/32/32
f 30/30/30 29/29/29 33/33/33
f 30/30/30 33/33/33 32/32/32
f 32/32/32 33/33/33 34/34/34
f 4/4/4 32/32/32 19/19/19
f 32/32/32 34/34/34 35/35/35
f 32/32/32 35/35/35 19/19/19
f 19/19/19 35/35/35 17/17/17
f 6/6/6 18/18/18 36/36/36
f 18/18/18 17/17/17 37/37/37
f 18/18/18 37/37/37 36/36/36
f 36/36/36 37/37/37 38/38/38
f 6/6/6 36/36/36 22/22/22
f 36/36/36 38/38/38 39/39/39
f 36/36/36 39/39/39 22/22/22
f 22/22/22 39/39/39 20/20/20
f 9/9/9 21/21/21 40/40/40
f 21/21/21 20/20/20 41/41/41
f 21/21/21 41/41/41 40/40/40
f 40/40/40 41/41/41 42/42/42
f 9/9/9 40/40/40 25/25/25
f 40/40/40 42/42/42 43/43/43
f 40/40/40 43/43/43 25/25/25
f 25/25/25 43/43/43 23/23/23
f 12/12/12 24/24/24 44/44/44
f 24/24/24 23/23/23 45/45/45
f 24/24/24 45/45/45 44/44/44
f 44/44/44 45/45/45 46/46/46
f 12/12/12 44/44/44 28/28/28
f 44/44/44 46/46/46 47/47/47
f 44/44/44 47/47/47 28/28/28
f 28/28/28 47/47/47 26/26/26
f 15/15/15 27/27/27 48/48/48
f 27/27/27 26/26/26 49/49/49
f 27/27/27 49/49/49 48/48/48
f 48/48/48 49/49/49 50/50/50
f 15/15/15 48/48/48 31/31/31
f 48/48/48 50/50/50 51/51/51
f 48/48/48 51/51/51 31/31/31
f 31/31/31 51/51/51 29/29/29
f 52/52/52 53/53/53 54/54/54
f 53/53/53 17/17/17 35/35/35
f 53/53/53 35/35/35 54/54/54
f 54/54/54 35/35/35 34/34/34
f 55/55/55 56/56/56 57/57/57
f 56/56/56 38/38/38 37/37/37
f 56/56/56 37/37/37 57/57/57
f 57/57/57 37/37/37 17/17/17
f 58/58/58 59/59/59 60/60/60
f 59/59/59 20/20/20 39/39/39
f 59/59/59 39/39/39 60/60/60
f 60/60/60 39/39/39 38/38/38
f 61/61/61 62/62/62 63/63/63
f 62/62/62 42/42/42 41/41/41
f 62/62/62 41/41/41 63/63/63
f 63/63/63 41/41/41 20/20/20
f 64/64/64 65/65/65 66/66/66
f 65/65/65 23/23/23 43/43/43
f 65/65/65 43/43/43 66/66/66
f 66/66/66 43/43/43 42/42/42
f 67/67/67 68/68/68 69/69/69
f 68/68/68 46/46/46 45/45/45
f 68/68/68 45/45/45 69/69/69
f 69/69/69 45/45/45 23/23/23
f 70/70/70 71/71/71 72/72/72
f 71/71/71 26/26/26 47/47/47
f 71/71/71 47/47/47 72/72/72
f 72/72/72 47/47/47 46/46/46
f 73/73/73 74/74/74 75/75/75
f 74/74/74 50/50/50 49/49/49
f 74/74/74 49/49/49 75/75/75
f 75/75/75 49/49/49 26/26/26
f 76/76/76 77/77/77 78/78/78
f 77/77/77 29/29/29 51/51/51
f 77/77/77 51/51/51 78/78/78
f 78/78/78 51/51/51 50/50/50
f 79/79/79 80/80/80 81/81/81
f 80/80/80 34/34/34 33/33/33
f 80/80/80 33/33/33 81/81/81
f 81/81/81 33/33/33 29/29/29
f 34/34/34 80/80/80 54/54/54
f 80/80/80 79/79/79 82/82/82
f 80/80/80 82/82/82 54/54/54
f 54/54/54 82/82/82 52/52/52
f 17/17/17 53/53/53 57/57/57
f 53/53/53 52/52/52 83/83/83
f 53/53/53 83/83/83 57/57/57
f 57/57/57 83/83/83 55/55/55
f 38/38/38 56/56/56 60/60/60
f 56/56/56 55/55/55 84/84/84
f 56/56/56 84/84/84 60/60/60
f 60/60/60 84/84/84 58/58/58
f 20/20/20 59/59/59 63/63/63
f 59/59/59 58/58/58 85/85/85
f 59/59/59 85/85/85 63/63/63
f 63/63/63 85/85/85 61/61/61
f 42/42/42 62/62/62 66/66/66
f 62/62/62 61/61/61 86/86/86
f 62/62/62 86/86/86 66/66/66
f 66/66/66 86/86/86 64/64/64
f 23/23/23 65/65/65 69/69/69
f 65/65/65 64/64/64 87/87/87
f 65/65/65 87/87/87 69/69/69
f 69/69/69 87/87/87 67/67/67
f 46/46/46 68/68/68 72/72/72
f 68/68/68 67/67/67 88/88/88
f 68/68/68 88/88/88 72/72/72
f 72/72/72 88/88/88 70/70/70
f 26/26/26 71/71/71 75/75/75
f 71/71/71 70/70/70 89/89/89
f 71/71/71 89/89/89 75/75/75
f 75/75/75 89/89/89 73/73/73
f 50/50/50 74/74/74 78/78/78
f 74/74/74 73/73/73 90/90/90
f 74/74/74 90/90/90 78/78/78
f 78/78/78 90/90/90 76/76/76
f 29/29/29 77/77/77 81/81/81
f 77/77/77 76/76/76 91/91/91
f 77/77/77 91/91/91 81/81/81
f 81/81/81 91/91/91 79/79/79
f 92/92/92 93/93/93 94/94/94
f 95/95/95 92/92/92 96/96/96
f 96/96/96 92/92/92 94/94/94
f 96/96/96 94/94/94 97/97/97
f 94/94/94 93/93/93 98/98/98
f 97/97/97 94/94/94 99/99/99
f 99/99/99 94/94/94 98/98/98
f 99/99/99 98/98/98 100/100/100
f 98/98/98 93/93/93 101/101/101
f 100/100/100 98/98/98 102/102/102
f 102/102/102 98/98/98 101/101/101
f 102/102/102 101/101/101 103/103/103
f 101/101/101 93/93/93 104/104/104
f 103/103/103 101/101/101 105/105/105
f 105/105/105 101/101/101 104/104/104
f 105/105/105 104/104/104 106/106/106
f 104/104/104 93/93/93 92/92/92
f 106/106/106 104/104/104 107/107/107
f 107/107/107 104/104/104 92/92/92
f 107/107/107 92/92/92 95/95/95
f 108/108/108 109/109/109 110/110/110
f 97/97/97 108/108/108 96/96/96
f 96/96/96 108/108/108 110/110/110
f 96/96/96 110/110/110 95/95/95
f 111/111/111 112/112/112 113/113/113
f 100/100/100 111/111/111 99/99/99
f 99/99/99 111/111/111 113/113/113
f 99/99/99 113/113/113 97/97/97
f 114/114/114 115/115/115 116/116/116
f 103/103/103 114/114/114 102/102/102
f 102/102/102 114/114/114 116/116/116
f 102/102/102 116/116/116 100/100/100
f 117/117/117 118/118/118 119/119/119
f 106/106/106 117/117/117 105/105/105
f 105/105/105 117/117/117 119/119/119
f 105/105/105 119/119/119 103/103/103
f 120/120/120 121/121/121 122/122/122
f 95/95/95 120/120/120 107/107/107
f 107/107/107 120/120/120 122/122/122
f 107/107/107 122/122/122 106/106/106
f 120/120/120 95/95/95 123/123/123
f 121/121/121 120/120/120 124/124/124
f 124/124/124 120/120/120 123/123/123
f 124/124/124 123/123/123 125/125/125
f 123/123/123 95/95/95 110/110/110
f 125/125/125 123/123/123 126/126/126
f 126/126/126 123/123/123 110/110/110
f 126/126/126 110/110/110 109/109/109
f 108/108/108 97/97/97 127/127/127
f 109/109/109 108/108/108 128/128/128
f 128/128/128 108/108/108 127/127/127
f 128/128/128 127/127/127 129/129/129
f 127/127/127 97/97/97 113/113/113
f 129/129/129 127/127/127 130/130/130
f 130/130/130 127/127/127 113/113/113
f 130/130/130 113/113/113 112/112/112
f 111/111/111 100/100/100 131/131/131
f 112/112/112 111/111/111 132/132/132
f 132/132/132 111/111/111 131/131/131
f 132/132/132 131/131/131 133/133/133
f 131/131/131 100/100/100 116/116/116
f 133/133/133 131/131/131 134/134/134
f 134/134/134 131/131/131 116/116/116
f 134/134/134 116/116/116 115/115/115
f 114/114/114 103/103/103 135/135/135
f 115/115/115 114/114/114 136/136/136
f 136/136/136 114/114/114 135/135/135
f 136/136/136 135/135/135 137/137/137
f 135/135/135 103/103/103 119/119/119
f 137/137/137 135/135/135 138/138/138
f 138/138/138 135/135/135 119/119/119
f 138/138/138 119/119/119 118/118/118
f 117/117/117 106/106/106 139/139/139
f 118/118/118 117/117/117 140/140/140
f 140/140/140 117/117/117 139/139/139
f 140/140/140 139/139/139 141/141/141
f 139/139/139 106/106/106 122/122/122
f 141/141/141 139/139/139 142/142/142
f 142/142/142 139/139/139 122/122/122
f 142/142/142 122/122/122 121/121/121
f 143/143/143 144/144/144 145/145/145
f 109/109/109 143/143/143 126/126/126
f 126/126/126 143/143/143 145/145/145
f 126/126/126 145/145/145 125/125/125
f 146/146/146 147/147/147 148/148/148
f 129/129/129 146/146/146 128/128/128
f 128/128/128 146/146/146 148/148/148
f 128/128/128 148/148/148 109/109/109
f 149/149/149 150/150/150 151/151/151
f 112/112/112 149/149/149 130/130/130
f 130/130/130 149/149/149 151/151/151
f 130/130/130 151/151/151 129/129/129
f 152/152/152 153/153/153 154/154/154
f 133/133/133 152/152/152 132/132/132
f 132/132/132 152/152/152 154/154/154
f 132/132/132 154/154/154 112/112/112
f 155/155/155 156/156/156 157/157/157
f 115/115/115 155/155/155 134/134/134
f 134/134/134 155/155/155 157/157/157
f 134/134/134 157/157/157 133/133/133
f 158/158/158 159/159/159 160/160/160
f 137/137/137 158/158/158 136/136/136
f 136/136/136 158/158/158 160/160/160
f 136/136/136 160/160/160 115/115/115
f 161/161/161 162/162/162 163/163/163
f 118/118/118 161/161/161 138/138/138
f 138/138/138 161/161/161 163/163/163
f 138/138/138 163/163/163 137/137/137
f 164/164/164 165/165/165 166/166/166
f 141/141/141 164/164/164 140/140/140
f 140/140/140 164/164/164 166/166/166
f 140/140/140 166/166/166 118/118/118
f 167/167/167 168/168/168 169/169/169
f 121/121/121 167/167/167 142/142/142
f 142/142/142 167/167/167 169/169/169
f 142/142/142 169/169/169 141/141/141
f 170/170/170 171/171/171 172/172/172
f 125/125/125 170/170/170 124/124/124
f 124/124/124 170/170/170 172/172/172
f 124/124/124 172/172/172 121/121/121
f 170/170/170 125/125/125 145/145/145
f 171/171/171 170/170/170 173/173/173
f 173/173/173 170/170/170 145/145/145
f 173/173/173 145/145/145 144/144/144
f 143/143/143 109/109/109 148/148/148
f 144/144/144 143/143/143 174/174/174
f 174/174/174 143/143/143 148/148/148
f 174/174/174 148/148/148 147/147/147
f 146/146/146 129/129/129 151/151/151
f 147/147/147 146/146/146 175/175/175
f 175/175/175 146/146/146 151/151/151
f 175/175/175 151/151/151 150/150/150
f 149/149/149 112/112/112 154/154/154
f 150/150/150 149/149/149 176/176/176
f 176/176/176 149/149/149 154/154/154
f 176/176/176 154/154/154 153/153/153
f 152/152/152 133/133/133 157/157/157
f 153/153/153 152/152/152 177/177/177
f 177/177/177 152/152/152 157/157/157
f 177/177/177 157/157/157 156/156/156
f 155/155/155 115/115/115 160/160/160
f 156/156/156 155/155/155 178/178/178
f 178/178/178 155/155/155 160/160/160
f 178/178/178 160/160/160 159/159/159
f 158/158/158 137/137/137 163/163/163
f 159/159/159 158/158/158 179/179/179
f 179/179/179 158/158/158 163/163/163
f 179/179/179 163/163/163 162/162/162
f 161/161/161 118/118/118 166/166/166
f 162/162/162 161/161/161 180/180/180
f 180/180/180 161/161/161 166/166/166
f 180/180/180 166/166/166 165/165/165
f 164/164/164 141/141/141 169/169/169
f 165/165/165 164/164/164 181/181/181
f 181/181/181 164/164/164 169/169/169
f 181/181/181 169/169/169 168/168/168
f 167/167/167 121/121/121 172/172/172
f 168/168/168 167/167/167 182/182/182
f 182/182/182 167/167/167 172/172/172
f 182/182/182 172/172/172 171/171/171
